<?xml version="1.0" encoding="UTF-8"?>
<svg width="400" height="400" viewBox="0 0 400 400" fill="none" xmlns="http://www.w3.org/2000/svg">
  <rect width="400" height="400" fill="#F3F4F6"/>
  <circle cx="200" cy="200" r="150" fill="#E5E7EB"/>
  <path d="M200 120C166.863 120 140 146.863 140 180C140 213.137 166.863 240 200 240C233.137 240 260 213.137 260 180C260 146.863 233.137 120 200 120ZM200 220C177.909 220 160 202.091 160 180C160 157.909 177.909 140 200 140C222.091 140 240 157.909 240 180C240 202.091 222.091 220 200 220Z" fill="#3B82F6"/>
  <circle cx="200" cy="180" r="20" fill="#EF4444"/>
  <path d="M200 50L220 90H180L200 50Z" fill="#EF4444"/>
  <path d="M200 310L220 270H180L200 310Z" fill="#EF4444"/>
  <path d="M50 180L90 200L50 220V180Z" fill="#EF4444"/>
  <path d="M350 180V220L310 200L350 180Z" fill="#EF4444"/>
</svg> 